<svg width="230" height="24" viewBox="0 0 230 24" fill="none" xmlns="http://www.w3.org/2000/svg">
<path d="M155.55 2.72727V10H154.886V2.72727H155.55ZM157.985 6.59091V10H157.353V4.54545H157.967V5.40128H158.024C158.152 5.12192 158.351 4.8982 158.62 4.73011C158.893 4.55966 159.229 4.47443 159.629 4.47443C159.996 4.47443 160.318 4.55137 160.595 4.70526C160.874 4.85677 161.091 5.08049 161.245 5.37642C161.401 5.67235 161.479 6.03575 161.479 6.46662V10H160.847V6.50568C160.847 6.05824 160.722 5.70431 160.471 5.44389C160.222 5.18348 159.888 5.05327 159.469 5.05327C159.183 5.05327 158.928 5.11482 158.706 5.23793C158.483 5.36103 158.307 5.53859 158.177 5.7706C158.049 6.00024 157.985 6.27367 157.985 6.59091ZM166.808 5.74219L166.23 5.90554C166.173 5.74219 166.092 5.59422 165.988 5.46165C165.884 5.32907 165.748 5.22372 165.58 5.1456C165.414 5.06747 165.208 5.02841 164.962 5.02841C164.593 5.02841 164.29 5.116 164.053 5.29119C163.816 5.46638 163.698 5.69247 163.698 5.96946C163.698 6.20384 163.778 6.39441 163.939 6.54119C164.102 6.68561 164.353 6.80043 164.692 6.88565L165.516 7.08807C165.973 7.19934 166.315 7.37571 166.542 7.61719C166.772 7.85866 166.887 8.1617 166.887 8.52628C166.887 8.83404 166.801 9.10748 166.631 9.34659C166.46 9.5857 166.223 9.77391 165.917 9.91122C165.614 10.0462 165.263 10.1136 164.862 10.1136C164.33 10.1136 163.891 9.99408 163.545 9.75497C163.199 9.51349 162.978 9.16548 162.881 8.71094L163.488 8.56179C163.566 8.88613 163.719 9.13116 163.946 9.29688C164.176 9.46259 164.478 9.54545 164.852 9.54545C165.271 9.54545 165.606 9.45194 165.857 9.26491C166.108 9.07552 166.233 8.83878 166.233 8.55469C166.233 8.33452 166.16 8.14986 166.013 8.00071C165.866 7.8492 165.644 7.73793 165.345 7.6669L164.454 7.45384C163.981 7.3402 163.63 7.16027 163.403 6.91406C163.176 6.66785 163.062 6.36245 163.062 5.99787C163.062 5.69721 163.144 5.43324 163.307 5.20597C163.47 4.97633 163.695 4.7964 163.982 4.66619C164.268 4.53598 164.595 4.47088 164.962 4.47088C165.461 4.47088 165.86 4.58452 166.159 4.81179C166.459 5.03669 166.676 5.34683 166.808 5.74219ZM170.419 4.54545V5.09588H167.816V4.54545H170.419ZM168.629 3.23864H169.265V8.57599C169.265 8.80327 169.304 8.98201 169.382 9.11222C169.46 9.24006 169.562 9.3312 169.688 9.38565C169.813 9.43774 169.947 9.46378 170.089 9.46378C170.172 9.46378 170.243 9.45904 170.302 9.44957C170.361 9.43774 170.413 9.4259 170.458 9.41406L170.593 9.9858C170.532 10.0095 170.456 10.0308 170.366 10.0497C170.276 10.071 170.165 10.0817 170.032 10.0817C169.8 10.0817 169.576 10.0308 169.361 9.92898C169.148 9.82718 168.973 9.67566 168.835 9.47443C168.698 9.2732 168.629 9.02344 168.629 8.72514V3.23864ZM171.855 10V4.54545H172.469V5.38352H172.515C172.624 5.1089 172.813 4.88755 173.083 4.71946C173.356 4.54901 173.663 4.46378 174.007 4.46378C174.059 4.46378 174.117 4.46496 174.181 4.46733C174.245 4.4697 174.298 4.47206 174.34 4.47443V5.11719C174.312 5.11245 174.262 5.10535 174.191 5.09588C174.12 5.08641 174.043 5.08168 173.96 5.08168C173.676 5.08168 173.423 5.14205 173.201 5.26278C172.98 5.38116 172.806 5.54569 172.678 5.75639C172.551 5.96709 172.487 6.20739 172.487 6.47727V10H171.855ZM178.885 7.91548V4.54545H179.517V10H178.885V9.09446H178.835C178.707 9.37382 178.505 9.60701 178.228 9.79403C177.951 9.97869 177.612 10.071 177.212 10.071C176.864 10.071 176.555 9.99527 176.286 9.84375C176.016 9.68987 175.804 9.46496 175.65 9.16903C175.496 8.87311 175.419 8.50971 175.419 8.07884V4.54545H176.051V8.03977C176.051 8.46591 176.177 8.80919 176.428 9.0696C176.679 9.32765 177.001 9.45668 177.394 9.45668C177.64 9.45668 177.876 9.39749 178.104 9.27912C178.331 9.16075 178.518 8.98793 178.665 8.76065C178.812 8.53101 178.885 8.24929 178.885 7.91548ZM181.191 10V4.54545H181.805V5.38352H181.862C181.971 5.1018 182.152 4.88045 182.405 4.71946C182.661 4.55611 182.967 4.47443 183.325 4.47443C183.701 4.47443 184.01 4.56321 184.252 4.74077C184.495 4.91596 184.678 5.15743 184.799 5.4652H184.845C184.968 5.16217 185.168 4.92187 185.445 4.74432C185.724 4.56439 186.063 4.47443 186.46 4.47443C186.967 4.47443 187.367 4.63423 187.661 4.95384C187.954 5.27107 188.101 5.73509 188.101 6.34588V10H187.469V6.34588C187.469 5.91501 187.359 5.59186 187.139 5.37642C186.919 5.16098 186.629 5.05327 186.269 5.05327C185.852 5.05327 185.531 5.18111 185.306 5.43679C185.081 5.69247 184.969 6.01681 184.969 6.4098V10H184.323V6.28906C184.323 5.91974 184.22 5.62145 184.014 5.39418C183.808 5.1669 183.518 5.05327 183.144 5.05327C182.893 5.05327 182.667 5.11482 182.465 5.23793C182.267 5.36103 182.109 5.53267 181.993 5.75284C181.879 5.97064 181.823 6.22159 181.823 6.50568V10H181.191ZM191.98 10.1136C191.471 10.1136 191.03 9.99527 190.659 9.75852C190.287 9.51941 189.999 9.18916 189.796 8.76776C189.595 8.34399 189.494 7.8563 189.494 7.30469C189.494 6.75545 189.595 6.26776 189.796 5.84162C189.999 5.41312 190.28 5.07812 190.637 4.83665C190.997 4.5928 191.413 4.47088 191.884 4.47088C192.18 4.47088 192.465 4.52533 192.74 4.63423C193.014 4.74077 193.261 4.9053 193.478 5.12784C193.699 5.34801 193.873 5.62618 194 5.96236C194.128 6.29616 194.192 6.69152 194.192 7.14844V7.46094H189.931V6.90341H193.546C193.546 6.55303 193.475 6.23816 193.333 5.95881C193.193 5.67708 192.998 5.45455 192.747 5.29119C192.498 5.12784 192.211 5.04616 191.884 5.04616C191.538 5.04616 191.234 5.13849 190.971 5.32315C190.708 5.50781 190.503 5.75166 190.353 6.05469C190.207 6.35772 190.132 6.68916 190.13 7.04901V7.38281C190.13 7.81605 190.204 8.19484 190.353 8.51918C190.505 8.84115 190.719 9.09091 190.996 9.26847C191.273 9.44602 191.601 9.5348 191.98 9.5348C192.238 9.5348 192.464 9.49455 192.658 9.41406C192.855 9.33357 193.019 9.22585 193.152 9.09091C193.287 8.9536 193.388 8.80327 193.457 8.63991L194.057 8.83523C193.974 9.06487 193.838 9.27675 193.649 9.47088C193.462 9.66501 193.227 9.82126 192.946 9.93963C192.666 10.0556 192.344 10.1136 191.98 10.1136ZM196.217 6.59091V10H195.585V4.54545H196.199V5.40128H196.256C196.384 5.12192 196.583 4.8982 196.853 4.73011C197.125 4.55966 197.461 4.47443 197.861 4.47443C198.228 4.47443 198.55 4.55137 198.827 4.70526C199.107 4.85677 199.323 5.08049 199.477 5.37642C199.633 5.67235 199.712 6.03575 199.712 6.46662V10H199.079V6.50568C199.079 6.05824 198.954 5.70431 198.703 5.44389C198.454 5.18348 198.121 5.05327 197.702 5.05327C197.415 5.05327 197.161 5.11482 196.938 5.23793C196.716 5.36103 196.539 5.53859 196.409 5.7706C196.281 6.00024 196.217 6.27367 196.217 6.59091ZM203.525 4.54545V5.09588H200.922V4.54545H203.525ZM201.735 3.23864H202.37V8.57599C202.37 8.80327 202.409 8.98201 202.488 9.11222C202.566 9.24006 202.668 9.3312 202.793 9.38565C202.918 9.43774 203.052 9.46378 203.194 9.46378C203.277 9.46378 203.348 9.45904 203.407 9.44957C203.467 9.43774 203.519 9.4259 203.564 9.41406L203.699 9.9858C203.637 10.0095 203.561 10.0308 203.471 10.0497C203.381 10.071 203.27 10.0817 203.137 10.0817C202.905 10.0817 202.682 10.0308 202.466 9.92898C202.253 9.82718 202.078 9.67566 201.941 9.47443C201.803 9.2732 201.735 9.02344 201.735 8.72514V3.23864ZM206.484 10.1243C206.154 10.1243 205.854 10.0604 205.582 9.93253C205.309 9.80232 205.093 9.61529 204.932 9.37145C204.771 9.12524 204.69 8.82694 204.69 8.47656C204.69 8.20668 204.741 7.9794 204.843 7.79474C204.945 7.61009 205.089 7.45857 205.276 7.3402C205.463 7.22183 205.685 7.12831 205.94 7.05966C206.196 6.991 206.478 6.93774 206.785 6.89986C207.091 6.86198 207.349 6.82884 207.56 6.80043C207.773 6.77202 207.935 6.72704 208.046 6.66548C208.157 6.60393 208.213 6.5045 208.213 6.36719V6.23935C208.213 5.86766 208.102 5.57528 207.879 5.36222C207.659 5.14678 207.342 5.03906 206.927 5.03906C206.534 5.03906 206.214 5.12547 205.965 5.2983C205.719 5.47112 205.546 5.67472 205.447 5.90909L204.846 5.69247C204.97 5.39418 205.14 5.15625 205.358 4.97869C205.576 4.79877 205.819 4.66974 206.089 4.59162C206.359 4.51113 206.633 4.47088 206.91 4.47088C207.118 4.47088 207.335 4.49811 207.56 4.55256C207.787 4.60701 207.998 4.7017 208.192 4.83665C208.386 4.96922 208.543 5.15507 208.664 5.39418C208.785 5.63092 208.845 5.93158 208.845 6.29616V10H208.213V9.13707H208.174C208.098 9.29806 207.986 9.45431 207.837 9.60582C207.687 9.75734 207.5 9.88163 207.275 9.97869C207.051 10.0758 206.787 10.1243 206.484 10.1243ZM206.569 9.54545C206.905 9.54545 207.196 9.47088 207.442 9.32173C207.689 9.17259 207.878 8.97491 208.011 8.72869C208.145 8.48011 208.213 8.20668 208.213 7.90838V7.12003C208.166 7.16501 208.086 7.20526 207.975 7.24077C207.866 7.27628 207.739 7.30824 207.595 7.33665C207.453 7.36269 207.311 7.38518 207.169 7.40412C207.027 7.42306 206.899 7.43963 206.785 7.45384C206.478 7.49171 206.215 7.5509 205.997 7.63139C205.779 7.71188 205.612 7.82315 205.496 7.9652C205.38 8.10488 205.322 8.2848 205.322 8.50497C205.322 8.83641 205.441 9.09328 205.677 9.27557C205.914 9.45549 206.211 9.54545 206.569 9.54545ZM212.675 4.54545V5.09588H210.072V4.54545H212.675ZM210.885 3.23864H211.521V8.57599C211.521 8.80327 211.56 8.98201 211.638 9.11222C211.716 9.24006 211.818 9.3312 211.943 9.38565C212.069 9.43774 212.203 9.46378 212.345 9.46378C212.428 9.46378 212.499 9.45904 212.558 9.44957C212.617 9.43774 212.669 9.4259 212.714 9.41406L212.849 9.9858C212.787 10.0095 212.712 10.0308 212.622 10.0497C212.532 10.071 212.42 10.0817 212.288 10.0817C212.056 10.0817 211.832 10.0308 211.617 9.92898C211.404 9.82718 211.228 9.67566 211.091 9.47443C210.954 9.2732 210.885 9.02344 210.885 8.72514V3.23864ZM214.118 10V4.54545H214.753V10H214.118ZM214.441 3.60795C214.311 3.60795 214.199 3.56416 214.107 3.47656C214.015 3.3866 213.968 3.27888 213.968 3.15341C213.968 3.02794 214.015 2.9214 214.107 2.83381C214.199 2.74384 214.311 2.69886 214.441 2.69886C214.571 2.69886 214.682 2.74384 214.775 2.83381C214.867 2.9214 214.913 3.02794 214.913 3.15341C214.913 3.27888 214.867 3.3866 214.775 3.47656C214.682 3.56416 214.571 3.60795 214.441 3.60795ZM218.545 10.1136C218.074 10.1136 217.657 9.99408 217.295 9.75497C216.935 9.51586 216.653 9.18561 216.45 8.7642C216.246 8.34044 216.144 7.85156 216.144 7.29759C216.144 6.73887 216.246 6.24763 216.45 5.82386C216.653 5.39773 216.935 5.06629 217.295 4.82955C217.657 4.59044 218.074 4.47088 218.545 4.47088C219.016 4.47088 219.432 4.59044 219.791 4.82955C220.151 5.06866 220.433 5.40009 220.637 5.82386C220.843 6.24763 220.946 6.73887 220.946 7.29759C220.946 7.85156 220.844 8.34044 220.64 8.7642C220.437 9.18561 220.154 9.51586 219.791 9.75497C219.432 9.99408 219.016 10.1136 218.545 10.1136ZM218.545 9.5348C218.924 9.5348 219.245 9.433 219.507 9.2294C219.77 9.0258 219.969 8.75473 220.104 8.41619C220.241 8.07765 220.31 7.70478 220.31 7.29759C220.31 6.89039 220.241 6.51634 220.104 6.17543C219.969 5.83452 219.77 5.56108 219.507 5.35511C219.245 5.14915 218.924 5.04616 218.545 5.04616C218.169 5.04616 217.848 5.14915 217.583 5.35511C217.32 5.56108 217.12 5.83452 216.982 6.17543C216.848 6.51634 216.78 6.89039 216.78 7.29759C216.78 7.70478 216.848 8.07765 216.982 8.41619C217.12 8.75473 217.32 9.0258 217.583 9.2294C217.845 9.433 218.166 9.5348 218.545 9.5348ZM222.965 6.59091V10H222.333V4.54545H222.947V5.40128H223.004C223.132 5.12192 223.331 4.8982 223.601 4.73011C223.873 4.55966 224.209 4.47443 224.609 4.47443C224.976 4.47443 225.298 4.55137 225.575 4.70526C225.855 4.85677 226.071 5.08049 226.225 5.37642C226.381 5.67235 226.46 6.03575 226.46 6.46662V10H225.827V6.50568C225.827 6.05824 225.702 5.70431 225.451 5.44389C225.202 5.18348 224.869 5.05327 224.45 5.05327C224.163 5.05327 223.909 5.11482 223.686 5.23793C223.464 5.36103 223.287 5.53859 223.157 5.7706C223.029 6.00024 222.965 6.27367 222.965 6.59091ZM154.886 21V13.7273H155.55V20.4034H159.016V21H154.886ZM160.387 21V15.5455H161.023V21H160.387ZM160.71 14.608C160.58 14.608 160.469 14.5642 160.376 14.4766C160.284 14.3866 160.238 14.2789 160.238 14.1534C160.238 14.0279 160.284 13.9214 160.376 13.8338C160.469 13.7438 160.58 13.6989 160.71 13.6989C160.84 13.6989 160.952 13.7438 161.044 13.8338C161.136 13.9214 161.183 14.0279 161.183 14.1534C161.183 14.2789 161.136 14.3866 161.044 14.4766C160.952 14.5642 160.84 14.608 160.71 14.608ZM162.826 21V13.7273H163.462V16.5859H163.518C163.589 16.4226 163.691 16.2545 163.824 16.0817C163.959 15.9089 164.135 15.7644 164.353 15.6484C164.573 15.5301 164.85 15.4709 165.184 15.4709C165.631 15.4709 166.024 15.5893 166.363 15.826C166.701 16.0604 166.965 16.3894 167.155 16.8132C167.344 17.2346 167.439 17.7259 167.439 18.2869C167.439 18.8504 167.344 19.344 167.155 19.7678C166.968 20.1915 166.705 20.5218 166.366 20.7585C166.03 20.9953 165.64 21.1136 165.194 21.1136C164.863 21.1136 164.586 21.0545 164.364 20.9361C164.143 20.8177 163.966 20.6721 163.831 20.4993C163.696 20.3241 163.592 20.1536 163.518 19.9879H163.44V21H162.826ZM163.451 18.2763C163.451 18.7166 163.516 19.1072 163.646 19.4482C163.779 19.7867 163.968 20.053 164.214 20.2472C164.463 20.4389 164.764 20.5348 165.116 20.5348C165.479 20.5348 165.785 20.4354 166.036 20.2365C166.287 20.0353 166.478 19.7642 166.608 19.4233C166.738 19.0824 166.803 18.7 166.803 18.2763C166.803 17.8572 166.738 17.4796 166.608 17.1435C166.48 16.8073 166.291 16.541 166.04 16.3445C165.789 16.1456 165.481 16.0462 165.116 16.0462C164.761 16.0462 164.459 16.142 164.211 16.3338C163.965 16.5232 163.776 16.786 163.646 17.1222C163.516 17.456 163.451 17.8407 163.451 18.2763ZM168.827 21V15.5455H169.442V16.3835H169.488C169.597 16.1089 169.786 15.8875 170.056 15.7195C170.328 15.549 170.636 15.4638 170.979 15.4638C171.031 15.4638 171.089 15.465 171.153 15.4673C171.217 15.4697 171.27 15.4721 171.313 15.4744V16.1172C171.285 16.1125 171.235 16.1054 171.164 16.0959C171.093 16.0864 171.016 16.0817 170.933 16.0817C170.649 16.0817 170.396 16.142 170.173 16.2628C169.953 16.3812 169.779 16.5457 169.651 16.7564C169.523 16.9671 169.459 17.2074 169.459 17.4773V21H168.827ZM173.915 21.1243C173.586 21.1243 173.285 21.0604 173.013 20.9325C172.741 20.8023 172.524 20.6153 172.363 20.3714C172.202 20.1252 172.122 19.8269 172.122 19.4766C172.122 19.2067 172.173 18.9794 172.275 18.7947C172.376 18.6101 172.521 18.4586 172.708 18.3402C172.895 18.2218 173.116 18.1283 173.372 18.0597C173.628 17.991 173.909 17.9377 174.217 17.8999C174.522 17.862 174.78 17.8288 174.991 17.8004C175.204 17.772 175.366 17.727 175.478 17.6655C175.589 17.6039 175.645 17.5045 175.645 17.3672V17.2393C175.645 16.8677 175.533 16.5753 175.311 16.3622C175.091 16.1468 174.773 16.0391 174.359 16.0391C173.966 16.0391 173.645 16.1255 173.397 16.2983C173.15 16.4711 172.978 16.6747 172.878 16.9091L172.278 16.6925C172.401 16.3942 172.572 16.1562 172.789 15.9787C173.007 15.7988 173.251 15.6697 173.521 15.5916C173.791 15.5111 174.064 15.4709 174.341 15.4709C174.55 15.4709 174.766 15.4981 174.991 15.5526C175.218 15.607 175.429 15.7017 175.623 15.8366C175.817 15.9692 175.975 16.1551 176.096 16.3942C176.216 16.6309 176.277 16.9316 176.277 17.2962V21H175.645V20.1371H175.606C175.53 20.2981 175.417 20.4543 175.268 20.6058C175.119 20.7573 174.932 20.8816 174.707 20.9787C174.482 21.0758 174.218 21.1243 173.915 21.1243ZM174 20.5455C174.337 20.5455 174.628 20.4709 174.874 20.3217C175.12 20.1726 175.31 19.9749 175.442 19.7287C175.577 19.4801 175.645 19.2067 175.645 18.9084V18.12C175.597 18.165 175.518 18.2053 175.407 18.2408C175.298 18.2763 175.171 18.3082 175.027 18.3366C174.885 18.3627 174.743 18.3852 174.601 18.4041C174.458 18.4231 174.331 18.4396 174.217 18.4538C173.909 18.4917 173.646 18.5509 173.429 18.6314C173.211 18.7119 173.044 18.8232 172.928 18.9652C172.812 19.1049 172.754 19.2848 172.754 19.505C172.754 19.8364 172.872 20.0933 173.109 20.2756C173.346 20.4555 173.643 20.5455 174 20.5455ZM177.958 21V15.5455H178.572V16.3835H178.619C178.728 16.1089 178.917 15.8875 179.187 15.7195C179.459 15.549 179.767 15.4638 180.11 15.4638C180.162 15.4638 180.22 15.465 180.284 15.4673C180.348 15.4697 180.401 15.4721 180.444 15.4744V16.1172C180.416 16.1125 180.366 16.1054 180.295 16.0959C180.224 16.0864 180.147 16.0817 180.064 16.0817C179.78 16.0817 179.527 16.142 179.304 16.2628C179.084 16.3812 178.91 16.5457 178.782 16.7564C178.654 16.9671 178.59 17.2074 178.59 17.4773V21H177.958ZM182.129 23.0455C182.003 23.0455 181.886 23.0336 181.777 23.0099C181.668 22.9863 181.582 22.9602 181.518 22.9318L181.689 22.3743C181.904 22.4406 182.096 22.4643 182.264 22.4453C182.432 22.4287 182.581 22.353 182.711 22.218C182.842 22.0855 182.958 21.8819 183.059 21.6072L183.258 21.0533L181.252 15.5455H181.937L183.557 20.1655H183.606L185.226 15.5455H185.911L183.603 21.8629C183.506 22.1257 183.386 22.3447 183.244 22.5199C183.102 22.6974 182.937 22.8288 182.75 22.9141C182.566 23.0017 182.359 23.0455 182.129 23.0455Z" fill="white"/>
<path fill-rule="evenodd" clip-rule="evenodd" d="M58.4721 2.21545C62.0368 2.21546 65.5246 4.5056 65.5247 9.47186V13.7434C65.5247 18.684 62.0369 21 58.4721 21H58.3183C54.7023 21 51.2658 18.684 51.2658 13.7434V9.47186C51.2658 4.5056 54.7023 2.21545 58.3183 2.21545H58.4721ZM58.3183 4.91733C56.0102 4.91733 54.138 6.64142 54.138 9.39477V13.8207C54.138 16.574 56.0102 18.2981 58.3183 18.2981H58.4721C60.7802 18.2981 62.6524 16.574 62.6524 13.8207V9.39477C62.6524 6.64143 60.7802 4.91734 58.4721 4.91733H58.3183Z" fill="white"/>
<path fill-rule="evenodd" clip-rule="evenodd" d="M19.2341 2.60152C19.2342 6.92446 22.6194 10.321 26.9278 10.3211V12.8944C22.5938 12.8944 19.2085 16.291 19.2341 20.6139H16.6697C16.644 16.291 13.2588 12.8944 8.97602 12.8944H0V10.3211H8.97602C13.2844 10.3211 16.6697 6.92448 16.6697 2.60152H19.2341ZM17.952 7.54192C17.0288 9.21451 15.5668 10.6814 13.8999 11.6077C15.5668 12.5341 17.0288 14.0007 17.952 15.6733C18.8753 14.0008 20.3371 12.5341 22.004 11.6077C20.337 10.6814 18.8753 9.21451 17.952 7.54192Z" fill="white"/>
<path d="M45.4184 16.7798H45.7518V2.60152H48.5216V20.6139H44.1618L38.1607 6.43544H37.8016V20.6139H35.032V2.60152H39.4173L45.4184 16.7798Z" fill="white"/>
<path d="M76.4753 12.4054H76.8856L81.2454 2.60152H85.118V20.6139H82.3482V7.4133H81.9634L77.6293 17.1659H75.7316L71.3975 7.4133H71.0127V20.6139H68.2431V2.60152H72.1156L76.4753 12.4054Z" fill="white"/>
<path d="M96.2737 5.17458H93.581V18.0407H96.2737V20.6139H88.1184V18.0407H90.8113V5.17458H88.1184V2.60152H96.2737V5.17458Z" fill="white"/>
<path d="M109.661 16.7798H109.994V2.60152H112.764V20.6139H108.404L102.403 6.43544H102.044V20.6139H99.2743V2.60152H103.66L109.661 16.7798Z" fill="white"/>
<path fill-rule="evenodd" clip-rule="evenodd" d="M130.003 20.6139H127.056L127.049 20.5908L127.049 20.5882C127.046 20.5791 127.043 20.57 127.04 20.561C126.319 18.1348 124.783 16.9342 122.407 16.9342C120.047 16.9342 118.483 18.1437 117.765 20.5882L117.764 20.5876L117.756 20.6139H114.816L120.201 2.60152H124.612L130.003 20.6139ZM121.403 8.14649H121.401L119.262 15.4624C120.081 14.7853 121.244 14.3851 122.407 14.3851C123.569 14.3851 124.706 14.7602 125.549 15.4608L125.484 15.2353L125.484 15.2359L123.411 8.14649H123.411L122.586 5.32897H122.227L121.403 8.14649Z" fill="white"/>
<path d="M134.819 18.0407H142V20.6139H132.049V2.60152H134.819V18.0407Z" fill="white"/>
<path d="M147.96 2.62927V20.6293" stroke="white" stroke-width="0.5"/>
</svg>
